<svg id="visual" viewBox="0 0 900 600" width="900" height="600" xmlns="http://www.w3.org/2000/svg" xmlns:xlink="http://www.w3.org/1999/xlink" version="1.1"><g transform="translate(462.93316298657976 271.5223736294643)"><path d="M146.5 -248.4C175.6 -236.9 175.3 -168.9 196.8 -118.1C218.3 -67.3 261.6 -33.7 253.1 -4.9C244.6 23.8 184.2 47.7 145.1 68C106 88.3 88.2 105 67.5 155.6C46.9 206.2 23.4 290.6 -8.3 304.9C-40 319.3 -80 263.6 -125.6 227.4C-171.2 191.2 -222.4 174.6 -244.6 140C-266.8 105.3 -259.9 52.7 -265.7 -3.3C-271.4 -59.3 -289.9 -118.7 -273.3 -163C-256.7 -207.3 -205.1 -236.6 -153.7 -235.2C-102.3 -233.9 -51.2 -202 3.7 -208.5C58.7 -214.9 117.3 -259.9 146.5 -248.4" fill="#BB004B"></path></g></svg>