<svg id="visual" viewBox="0 0 900 600" width="900" height="600" xmlns="http://www.w3.org/2000/svg" xmlns:xlink="http://www.w3.org/1999/xlink" version="1.1"><g transform="translate(480.07099473410665 357.20675972691345)"><path d="M96.6 -193.3C128.2 -149.1 158.9 -129.3 193.2 -101.1C227.4 -73 265.2 -36.5 276.2 6.3C287.2 49.2 271.3 98.3 243.2 137.2C215.2 176 174.8 204.5 132.2 203.3C89.7 202.2 44.8 171.4 7.7 158.1C-29.5 144.9 -59 149.1 -110.5 155.4C-162.1 161.7 -235.6 170.1 -282.9 144.5C-330.1 119 -351.1 59.5 -333.9 9.9C-316.7 -39.7 -261.4 -79.3 -221.5 -117.6C-181.6 -155.8 -157 -192.7 -122.7 -235.3C-88.3 -278 -44.2 -326.5 -5.8 -316.4C32.5 -306.3 65 -237.6 96.6 -193.3" fill="#BB004B"></path></g></svg>