<svg id="visual" viewBox="0 0 960 300" width="960" height="300" xmlns="http://www.w3.org/2000/svg" xmlns:xlink="http://www.w3.org/1999/xlink" version="1.1"><rect x="0" y="0" width="960" height="300" fill="#202731"></rect><path d="M0 89L26.7 98.5C53.3 108 106.7 127 160 128.7C213.3 130.3 266.7 114.7 320 114C373.3 113.3 426.7 127.7 480 126.5C533.3 125.3 586.7 108.7 640 109.5C693.3 110.3 746.7 128.7 800 133.5C853.3 138.3 906.7 129.7 933.3 125.3L960 121L960 0L933.3 0C906.7 0 853.3 0 800 0C746.7 0 693.3 0 640 0C586.7 0 533.3 0 480 0C426.7 0 373.3 0 320 0C266.7 0 213.3 0 160 0C106.7 0 53.3 0 26.7 0L0 0Z" fill="#6054ff"></path><path d="M0 68L26.7 71.7C53.3 75.3 106.7 82.7 160 88.5C213.3 94.3 266.7 98.7 320 98.3C373.3 98 426.7 93 480 92.8C533.3 92.7 586.7 97.3 640 98.8C693.3 100.3 746.7 98.7 800 97.2C853.3 95.7 906.7 94.3 933.3 93.7L960 93L960 0L933.3 0C906.7 0 853.3 0 800 0C746.7 0 693.3 0 640 0C586.7 0 533.3 0 480 0C426.7 0 373.3 0 320 0C266.7 0 213.3 0 160 0C106.7 0 53.3 0 26.7 0L0 0Z" fill="#5549f4"></path><path d="M0 60L26.7 61.8C53.3 63.7 106.7 67.3 160 66.5C213.3 65.7 266.7 60.3 320 55.8C373.3 51.3 426.7 47.7 480 46.5C533.3 45.3 586.7 46.7 640 52.2C693.3 57.7 746.7 67.3 800 71.3C853.3 75.3 906.7 73.7 933.3 72.8L960 72L960 0L933.3 0C906.7 0 853.3 0 800 0C746.7 0 693.3 0 640 0C586.7 0 533.3 0 480 0C426.7 0 373.3 0 320 0C266.7 0 213.3 0 160 0C106.7 0 53.3 0 26.7 0L0 0Z" fill="#493de8"></path><path d="M0 52L26.7 50.2C53.3 48.3 106.7 44.7 160 40C213.3 35.3 266.7 29.7 320 28.2C373.3 26.7 426.7 29.3 480 34.2C533.3 39 586.7 46 640 49.3C693.3 52.7 746.7 52.3 800 52.2C853.3 52 906.7 52 933.3 52L960 52L960 0L933.3 0C906.7 0 853.3 0 800 0C746.7 0 693.3 0 640 0C586.7 0 533.3 0 480 0C426.7 0 373.3 0 320 0C266.7 0 213.3 0 160 0C106.7 0 53.3 0 26.7 0L0 0Z" fill="#3c31dd"></path></svg>