<svg id="visual" viewBox="0 0 960 300" width="960" height="300" xmlns="http://www.w3.org/2000/svg" xmlns:xlink="http://www.w3.org/1999/xlink" version="1.1"><rect x="0" y="0" width="960" height="300" fill="#dd3f31"></rect><path d="M0 122L10 130.7C20 139.3 40 156.7 60 165.8C80 175 100 176 120 182.5C140 189 160 201 180 186.5C200 172 220 131 240 129.8C260 128.7 280 167.3 300 181.7C320 196 340 186 360 181.8C380 177.7 400 179.3 420 173.2C440 167 460 153 480 145C500 137 520 135 540 137C560 139 580 145 600 159.7C620 174.3 640 197.7 660 196.3C680 195 700 169 720 152.8C740 136.7 760 130.3 780 136.7C800 143 820 162 840 156.5C860 151 880 121 900 125C920 129 940 167 950 186L960 205L960 0L950 0C940 0 920 0 900 0C880 0 860 0 840 0C820 0 800 0 780 0C760 0 740 0 720 0C700 0 680 0 660 0C640 0 620 0 600 0C580 0 560 0 540 0C520 0 500 0 480 0C460 0 440 0 420 0C400 0 380 0 360 0C340 0 320 0 300 0C280 0 260 0 240 0C220 0 200 0 180 0C160 0 140 0 120 0C100 0 80 0 60 0C40 0 20 0 10 0L0 0Z" fill="#902d24"></path><path d="M0 164L10 167.8C20 171.7 40 179.3 60 167.2C80 155 100 123 120 111.3C140 99.7 160 108.3 180 110.3C200 112.3 220 107.7 240 110.2C260 112.7 280 122.3 300 134.8C320 147.3 340 162.7 360 163.2C380 163.7 400 149.3 420 135.5C440 121.7 460 108.3 480 115.2C500 122 520 149 540 152.7C560 156.3 580 136.7 600 125.5C620 114.3 640 111.7 660 115.3C680 119 700 129 720 124.2C740 119.3 760 99.7 780 105.3C800 111 820 142 840 151C860 160 880 147 900 142.7C920 138.3 940 142.7 950 144.8L960 147L960 0L950 0C940 0 920 0 900 0C880 0 860 0 840 0C820 0 800 0 780 0C760 0 740 0 720 0C700 0 680 0 660 0C640 0 620 0 600 0C580 0 560 0 540 0C520 0 500 0 480 0C460 0 440 0 420 0C400 0 380 0 360 0C340 0 320 0 300 0C280 0 260 0 240 0C220 0 200 0 180 0C160 0 140 0 120 0C100 0 80 0 60 0C40 0 20 0 10 0L0 0Z" fill="#84253a"></path><path d="M0 110L10 112.7C20 115.3 40 120.7 60 128.2C80 135.7 100 145.3 120 140.3C140 135.3 160 115.7 180 110.8C200 106 220 116 240 114.2C260 112.3 280 98.7 300 95.8C320 93 340 101 360 103.3C380 105.7 400 102.3 420 96.8C440 91.3 460 83.7 480 92.8C500 102 520 128 540 139.3C560 150.7 580 147.3 600 136.8C620 126.3 640 108.7 660 110.8C680 113 700 135 720 145.2C740 155.3 760 153.7 780 139.3C800 125 820 98 840 89.3C860 80.7 880 90.3 900 103C920 115.7 940 131.3 950 139.2L960 147L960 0L950 0C940 0 920 0 900 0C880 0 860 0 840 0C820 0 800 0 780 0C760 0 740 0 720 0C700 0 680 0 660 0C640 0 620 0 600 0C580 0 560 0 540 0C520 0 500 0 480 0C460 0 440 0 420 0C400 0 380 0 360 0C340 0 320 0 300 0C280 0 260 0 240 0C220 0 200 0 180 0C160 0 140 0 120 0C100 0 80 0 60 0C40 0 20 0 10 0L0 0Z" fill="#702749"></path><path d="M0 53L10 61C20 69 40 85 60 95.8C80 106.7 100 112.3 120 114.5C140 116.7 160 115.3 180 109.2C200 103 220 92 240 90.2C260 88.3 280 95.7 300 100C320 104.3 340 105.7 360 106.3C380 107 400 107 420 109C440 111 460 115 480 120.2C500 125.3 520 131.7 540 126.8C560 122 580 106 600 95.8C620 85.7 640 81.3 660 85.2C680 89 700 101 720 110.7C740 120.3 760 127.7 780 119.8C800 112 820 89 840 74.3C860 59.7 880 53.3 900 56.2C920 59 940 71 950 77L960 83L960 0L950 0C940 0 920 0 900 0C880 0 860 0 840 0C820 0 800 0 780 0C760 0 740 0 720 0C700 0 680 0 660 0C640 0 620 0 600 0C580 0 560 0 540 0C520 0 500 0 480 0C460 0 440 0 420 0C400 0 380 0 360 0C340 0 320 0 300 0C280 0 260 0 240 0C220 0 200 0 180 0C160 0 140 0 120 0C100 0 80 0 60 0C40 0 20 0 10 0L0 0Z" fill="#562b4f"></path><path d="M0 56L10 56.3C20 56.7 40 57.3 60 56.2C80 55 100 52 120 48.7C140 45.3 160 41.7 180 42.7C200 43.7 220 49.3 240 59.2C260 69 280 83 300 81.2C320 79.3 340 61.7 360 60.2C380 58.7 400 73.3 420 84C440 94.7 460 101.3 480 102.2C500 103 520 98 540 86.3C560 74.7 580 56.3 600 49.5C620 42.7 640 47.3 660 53.7C680 60 700 68 720 66C740 64 760 52 780 46.8C800 41.7 820 43.3 840 52.7C860 62 880 79 900 82.5C920 86 940 76 950 71L960 66L960 0L950 0C940 0 920 0 900 0C880 0 860 0 840 0C820 0 800 0 780 0C760 0 740 0 720 0C700 0 680 0 660 0C640 0 620 0 600 0C580 0 560 0 540 0C520 0 500 0 480 0C460 0 440 0 420 0C400 0 380 0 360 0C340 0 320 0 300 0C280 0 260 0 240 0C220 0 200 0 180 0C160 0 140 0 120 0C100 0 80 0 60 0C40 0 20 0 10 0L0 0Z" fill="#3d2d4c"></path><path d="M0 57L10 60.7C20 64.3 40 71.7 60 75C80 78.3 100 77.7 120 70.8C140 64 160 51 180 51.2C200 51.3 220 64.7 240 70.8C260 77 280 76 300 72.2C320 68.3 340 61.7 360 59.7C380 57.7 400 60.3 420 61C440 61.7 460 60.3 480 53C500 45.7 520 32.3 540 31.7C560 31 580 43 600 49.7C620 56.3 640 57.7 660 56.3C680 55 700 51 720 49.2C740 47.3 760 47.7 780 51.8C800 56 820 64 840 68C860 72 880 72 900 72.2C920 72.3 940 72.7 950 72.8L960 73L960 0L950 0C940 0 920 0 900 0C880 0 860 0 840 0C820 0 800 0 780 0C760 0 740 0 720 0C700 0 680 0 660 0C640 0 620 0 600 0C580 0 560 0 540 0C520 0 500 0 480 0C460 0 440 0 420 0C400 0 380 0 360 0C340 0 320 0 300 0C280 0 260 0 240 0C220 0 200 0 180 0C160 0 140 0 120 0C100 0 80 0 60 0C40 0 20 0 10 0L0 0Z" fill="#292c41"></path><path d="M0 49L10 46.3C20 43.7 40 38.3 60 33.7C80 29 100 25 120 22.5C140 20 160 19 180 23.8C200 28.7 220 39.3 240 38.8C260 38.3 280 26.7 300 24.2C320 21.7 340 28.3 360 30.8C380 33.3 400 31.7 420 33.5C440 35.3 460 40.7 480 38.7C500 36.7 520 27.3 540 28.2C560 29 580 40 600 44C620 48 640 45 660 41.5C680 38 700 34 720 28.7C740 23.3 760 16.7 780 19.2C800 21.7 820 33.3 840 35.2C860 37 880 29 900 25.8C920 22.7 940 24.3 950 25.2L960 26L960 0L950 0C940 0 920 0 900 0C880 0 860 0 840 0C820 0 800 0 780 0C760 0 740 0 720 0C700 0 680 0 660 0C640 0 620 0 600 0C580 0 560 0 540 0C520 0 500 0 480 0C460 0 440 0 420 0C400 0 380 0 360 0C340 0 320 0 300 0C280 0 260 0 240 0C220 0 200 0 180 0C160 0 140 0 120 0C100 0 80 0 60 0C40 0 20 0 10 0L0 0Z" fill="#202731"></path></svg>